<?xml version="1.0" encoding="utf-8" ?>
<svg baseProfile="tiny" height="220" version="1.2" width="620" xmlns="http://www.w3.org/2000/svg" xmlns:ev="http://www.w3.org/2001/xml-events" xmlns:xlink="http://www.w3.org/1999/xlink"><defs /><line stroke="rgb(10%,10%,16%)" x1="22" x2="22" y1="10" y2="34.0" /><line stroke="rgb(10%,10%,16%)" x1="22" x2="22" y1="34.0" y2="58.0" /><line stroke="rgb(10%,10%,16%)" x1="10" x2="22" y1="16.0" y2="10" /><line stroke="rgb(10%,10%,16%)" x1="10" x2="34" y1="58.0" y2="58.0" /><line stroke="rgb(10%,10%,16%)" x1="40" x2="64" y1="10" y2="10" /><line stroke="rgb(10%,10%,16%)" x1="64" x2="64" y1="10" y2="34.0" /><line stroke="rgb(10%,10%,16%)" x1="40" x2="64" y1="34.0" y2="34.0" /><line stroke="rgb(10%,10%,16%)" x1="40" x2="40" y1="34.0" y2="58.0" /><line stroke="rgb(10%,10%,16%)" x1="40" x2="64" y1="58.0" y2="58.0" /><line stroke="rgb(10%,10%,16%)" x1="70" x2="94" y1="10" y2="10" /><line stroke="rgb(10%,10%,16%)" x1="94" x2="94" y1="10" y2="34.0" /><line stroke="rgb(10%,10%,16%)" x1="70" x2="94" y1="34.0" y2="34.0" /><line stroke="rgb(10%,10%,16%)" x1="94" x2="94" y1="34.0" y2="58.0" /><line stroke="rgb(10%,10%,16%)" x1="70" x2="94" y1="58.0" y2="58.0" /><line stroke="rgb(10%,10%,16%)" x1="100" x2="100" y1="10" y2="34.0" /><line stroke="rgb(10%,10%,16%)" x1="124" x2="124" y1="10" y2="34.0" /><line stroke="rgb(10%,10%,16%)" x1="100" x2="124" y1="34.0" y2="34.0" /><line stroke="rgb(10%,10%,16%)" x1="124" x2="124" y1="34.0" y2="58.0" /><line stroke="rgb(10%,10%,16%)" x1="130" x2="154" y1="10" y2="10" /><line stroke="rgb(10%,10%,16%)" x1="130" x2="130" y1="10" y2="34.0" /><line stroke="rgb(10%,10%,16%)" x1="130" x2="154" y1="34.0" y2="34.0" /><line stroke="rgb(10%,10%,16%)" x1="154" x2="154" y1="34.0" y2="58.0" /><line stroke="rgb(10%,10%,16%)" x1="130" x2="154" y1="58.0" y2="58.0" /><line stroke="rgb(10%,10%,16%)" x1="160" x2="184" y1="10" y2="10" /><line stroke="rgb(10%,10%,16%)" x1="160" x2="160" y1="10" y2="34.0" /><line stroke="rgb(10%,10%,16%)" x1="160" x2="184" y1="34.0" y2="34.0" /><line stroke="rgb(10%,10%,16%)" x1="160" x2="160" y1="34.0" y2="58.0" /><line stroke="rgb(10%,10%,16%)" x1="184" x2="184" y1="34.0" y2="58.0" /><line stroke="rgb(10%,10%,16%)" x1="160" x2="184" y1="58.0" y2="58.0" /><line stroke="rgb(10%,10%,16%)" x1="190" x2="214" y1="10" y2="10" /><line stroke="rgb(10%,10%,16%)" x1="214" x2="202" y1="10" y2="58.0" /><line stroke="rgb(10%,10%,16%)" x1="207" x2="209" y1="32.0" y2="36.0" /><line stroke="rgb(10%,10%,16%)" x1="220" x2="244" y1="10" y2="10" /><line stroke="rgb(10%,10%,16%)" x1="220" x2="220" y1="10" y2="34.0" /><line stroke="rgb(10%,10%,16%)" x1="244" x2="244" y1="10" y2="34.0" /><line stroke="rgb(10%,10%,16%)" x1="220" x2="244" y1="34.0" y2="34.0" /><line stroke="rgb(10%,10%,16%)" x1="220" x2="220" y1="34.0" y2="58.0" /><line stroke="rgb(10%,10%,16%)" x1="244" x2="244" y1="34.0" y2="58.0" /><line stroke="rgb(10%,10%,16%)" x1="220" x2="244" y1="58.0" y2="58.0" /><line stroke="rgb(10%,10%,16%)" x1="250" x2="274" y1="10" y2="10" /><line stroke="rgb(10%,10%,16%)" x1="250" x2="250" y1="10" y2="34.0" /><line stroke="rgb(10%,10%,16%)" x1="274" x2="274" y1="10" y2="34.0" /><line stroke="rgb(10%,10%,16%)" x1="250" x2="274" y1="34.0" y2="34.0" /><line stroke="rgb(10%,10%,16%)" x1="274" x2="274" y1="34.0" y2="58.0" /><line stroke="rgb(10%,10%,16%)" x1="250" x2="274" y1="58.0" y2="58.0" /><line stroke="rgb(10%,10%,16%)" x1="280" x2="304" y1="10" y2="10" /><line stroke="rgb(10%,10%,16%)" x1="280" x2="280" y1="10" y2="34.0" /><line stroke="rgb(10%,10%,16%)" x1="304" x2="304" y1="10" y2="34.0" /><line stroke="rgb(10%,10%,16%)" x1="280" x2="280" y1="34.0" y2="58.0" /><line stroke="rgb(10%,10%,16%)" x1="304" x2="304" y1="34.0" y2="58.0" /><line stroke="rgb(10%,10%,16%)" x1="280" x2="304" y1="58.0" y2="58.0" /><line stroke="rgb(10%,10%,16%)" x1="291" x2="293" y1="32.0" y2="36.0" /><line stroke="rgb(10%,10%,16%)" x1="322" x2="322" y1="10" y2="34.0" /><line stroke="rgb(10%,10%,16%)" x1="322" x2="322" y1="34.0" y2="58.0" /><line stroke="rgb(10%,10%,16%)" x1="310" x2="322" y1="16.0" y2="10" /><line stroke="rgb(10%,10%,16%)" x1="310" x2="334" y1="58.0" y2="58.0" /><line stroke="rgb(10%,10%,16%)" x1="340" x2="364" y1="10" y2="10" /><line stroke="rgb(10%,10%,16%)" x1="364" x2="364" y1="10" y2="34.0" /><line stroke="rgb(10%,10%,16%)" x1="340" x2="364" y1="34.0" y2="34.0" /><line stroke="rgb(10%,10%,16%)" x1="340" x2="340" y1="34.0" y2="58.0" /><line stroke="rgb(10%,10%,16%)" x1="340" x2="364" y1="58.0" y2="58.0" /><line stroke="rgb(10%,10%,16%)" x1="370" x2="394" y1="10" y2="10" /><line stroke="rgb(10%,10%,16%)" x1="394" x2="394" y1="10" y2="34.0" /><line stroke="rgb(10%,10%,16%)" x1="370" x2="394" y1="34.0" y2="34.0" /><line stroke="rgb(10%,10%,16%)" x1="394" x2="394" y1="34.0" y2="58.0" /><line stroke="rgb(10%,10%,16%)" x1="370" x2="394" y1="58.0" y2="58.0" /><line stroke="rgb(10%,10%,16%)" x1="400" x2="400" y1="10" y2="34.0" /><line stroke="rgb(10%,10%,16%)" x1="424" x2="424" y1="10" y2="34.0" /><line stroke="rgb(10%,10%,16%)" x1="400" x2="424" y1="34.0" y2="34.0" /><line stroke="rgb(10%,10%,16%)" x1="424" x2="424" y1="34.0" y2="58.0" /><line stroke="rgb(10%,10%,16%)" x1="430" x2="454" y1="10" y2="10" /><line stroke="rgb(10%,10%,16%)" x1="430" x2="430" y1="10" y2="34.0" /><line stroke="rgb(10%,10%,16%)" x1="430" x2="454" y1="34.0" y2="34.0" /><line stroke="rgb(10%,10%,16%)" x1="454" x2="454" y1="34.0" y2="58.0" /><line stroke="rgb(10%,10%,16%)" x1="430" x2="454" y1="58.0" y2="58.0" /><line stroke="rgb(10%,10%,16%)" x1="460" x2="484" y1="10" y2="10" /><line stroke="rgb(10%,10%,16%)" x1="460" x2="460" y1="10" y2="34.0" /><line stroke="rgb(10%,10%,16%)" x1="460" x2="484" y1="34.0" y2="34.0" /><line stroke="rgb(10%,10%,16%)" x1="460" x2="460" y1="34.0" y2="58.0" /><line stroke="rgb(10%,10%,16%)" x1="484" x2="484" y1="34.0" y2="58.0" /><line stroke="rgb(10%,10%,16%)" x1="460" x2="484" y1="58.0" y2="58.0" /><line stroke="rgb(10%,10%,16%)" x1="490" x2="514" y1="10" y2="10" /><line stroke="rgb(10%,10%,16%)" x1="514" x2="502" y1="10" y2="58.0" /><line stroke="rgb(10%,10%,16%)" x1="507" x2="509" y1="32.0" y2="36.0" /><line stroke="rgb(10%,10%,16%)" x1="520" x2="544" y1="10" y2="10" /><line stroke="rgb(10%,10%,16%)" x1="520" x2="520" y1="10" y2="34.0" /><line stroke="rgb(10%,10%,16%)" x1="544" x2="544" y1="10" y2="34.0" /><line stroke="rgb(10%,10%,16%)" x1="520" x2="544" y1="34.0" y2="34.0" /><line stroke="rgb(10%,10%,16%)" x1="520" x2="520" y1="34.0" y2="58.0" /><line stroke="rgb(10%,10%,16%)" x1="544" x2="544" y1="34.0" y2="58.0" /><line stroke="rgb(10%,10%,16%)" x1="520" x2="544" y1="58.0" y2="58.0" /><line stroke="rgb(10%,10%,16%)" x1="550" x2="574" y1="10" y2="10" /><line stroke="rgb(10%,10%,16%)" x1="550" x2="550" y1="10" y2="34.0" /><line stroke="rgb(10%,10%,16%)" x1="574" x2="574" y1="10" y2="34.0" /><line stroke="rgb(10%,10%,16%)" x1="550" x2="574" y1="34.0" y2="34.0" /><line stroke="rgb(10%,10%,16%)" x1="574" x2="574" y1="34.0" y2="58.0" /><line stroke="rgb(10%,10%,16%)" x1="550" x2="574" y1="58.0" y2="58.0" /><line stroke="rgb(10%,10%,16%)" x1="580" x2="604" y1="10" y2="10" /><line stroke="rgb(10%,10%,16%)" x1="580" x2="580" y1="10" y2="34.0" /><line stroke="rgb(10%,10%,16%)" x1="604" x2="604" y1="10" y2="34.0" /><line stroke="rgb(10%,10%,16%)" x1="580" x2="580" y1="34.0" y2="58.0" /><line stroke="rgb(10%,10%,16%)" x1="604" x2="604" y1="34.0" y2="58.0" /><line stroke="rgb(10%,10%,16%)" x1="580" x2="604" y1="58.0" y2="58.0" /><line stroke="rgb(10%,10%,16%)" x1="591" x2="593" y1="32.0" y2="36.0" /></svg>