<?xml version="1.0" encoding="utf-8" ?>
<svg baseProfile="tiny" height="220" version="1.2" width="620" xmlns="http://www.w3.org/2000/svg" xmlns:ev="http://www.w3.org/2001/xml-events" xmlns:xlink="http://www.w3.org/1999/xlink"><defs /><line stroke="rgb(10%,10%,16%)" x1="10" x2="70" y1="10" y2="10" /><line stroke="rgb(10%,10%,16%)" x1="70" x2="70" y1="10" y2="70.0" /><line stroke="rgb(10%,10%,16%)" x1="70" x2="70" y1="70.0" y2="130.0" /><line stroke="rgb(10%,10%,16%)" x1="85" x2="145" y1="10" y2="10" /><line stroke="rgb(10%,10%,16%)" x1="85" x2="85" y1="10" y2="70.0" /><line stroke="rgb(10%,10%,16%)" x1="145" x2="145" y1="10" y2="70.0" /><line stroke="rgb(10%,10%,16%)" x1="85" x2="85" y1="70.0" y2="130.0" /><line stroke="rgb(10%,10%,16%)" x1="145" x2="145" y1="70.0" y2="130.0" /><line stroke="rgb(10%,10%,16%)" x1="85" x2="145" y1="130.0" y2="130.0" /><line stroke="rgb(10%,10%,16%)" x1="160" x2="220" y1="10" y2="10" /><line stroke="rgb(10%,10%,16%)" x1="160" x2="160" y1="10" y2="70.0" /><line stroke="rgb(10%,10%,16%)" x1="220" x2="220" y1="10" y2="70.0" /><line stroke="rgb(10%,10%,16%)" x1="160" x2="160" y1="70.0" y2="130.0" /><line stroke="rgb(10%,10%,16%)" x1="220" x2="220" y1="70.0" y2="130.0" /><line stroke="rgb(10%,10%,16%)" x1="160" x2="220" y1="130.0" y2="130.0" /><line stroke="rgb(10%,10%,16%)" x1="235" x2="295" y1="10" y2="10" /><line stroke="rgb(10%,10%,16%)" x1="235" x2="235" y1="10" y2="70.0" /><line stroke="rgb(10%,10%,16%)" x1="235" x2="295" y1="70.0" y2="70.0" /><line stroke="rgb(10%,10%,16%)" x1="295" x2="295" y1="70.0" y2="130.0" /><line stroke="rgb(10%,10%,16%)" x1="235" x2="295" y1="130.0" y2="130.0" /><line stroke="rgb(10%,10%,16%)" x1="310" x2="370" y1="10" y2="10" /><line stroke="rgb(10%,10%,16%)" x1="310" x2="310" y1="10" y2="70.0" /><line stroke="rgb(10%,10%,16%)" x1="310" x2="370" y1="70.0" y2="70.0" /><line stroke="rgb(10%,10%,16%)" x1="310" x2="310" y1="70.0" y2="130.0" /><line stroke="rgb(10%,10%,16%)" x1="370" x2="370" y1="70.0" y2="130.0" /><line stroke="rgb(10%,10%,16%)" x1="310" x2="370" y1="130.0" y2="130.0" /><line stroke="rgb(10%,10%,16%)" x1="415" x2="415" y1="10" y2="70.0" /><line stroke="rgb(10%,10%,16%)" x1="415" x2="415" y1="70.0" y2="130.0" /><line stroke="rgb(10%,10%,16%)" x1="385" x2="415" y1="25.0" y2="10" /><line stroke="rgb(10%,10%,16%)" x1="385" x2="445" y1="130.0" y2="130.0" /><line stroke="rgb(10%,10%,16%)" x1="460" x2="520" y1="10" y2="10" /><line stroke="rgb(10%,10%,16%)" x1="520" x2="520" y1="10" y2="70.0" /><line stroke="rgb(10%,10%,16%)" x1="460" x2="520" y1="70.0" y2="70.0" /><line stroke="rgb(10%,10%,16%)" x1="460" x2="460" y1="70.0" y2="130.0" /><line stroke="rgb(10%,10%,16%)" x1="460" x2="520" y1="130.0" y2="130.0" /><line stroke="rgb(10%,10%,16%)" x1="535" x2="595" y1="10" y2="10" /><line stroke="rgb(10%,10%,16%)" x1="535" x2="535" y1="10" y2="70.0" /><line stroke="rgb(10%,10%,16%)" x1="595" x2="595" y1="10" y2="70.0" /><line stroke="rgb(10%,10%,16%)" x1="535" x2="595" y1="70.0" y2="70.0" /><line stroke="rgb(10%,10%,16%)" x1="535" x2="535" y1="70.0" y2="130.0" /><line stroke="rgb(10%,10%,16%)" x1="595" x2="595" y1="70.0" y2="130.0" /><line stroke="rgb(10%,10%,16%)" x1="535" x2="595" y1="130.0" y2="130.0" /></svg>