<?xml version="1.0" encoding="utf-8" ?>
<svg baseProfile="tiny" height="220" version="1.2" width="620" xmlns="http://www.w3.org/2000/svg" xmlns:ev="http://www.w3.org/2001/xml-events" xmlns:xlink="http://www.w3.org/1999/xlink"><defs /><line stroke="rgb(10%,10%,16%)" x1="10" x2="90" y1="10" y2="10" /><line stroke="rgb(10%,10%,16%)" x1="90" x2="90" y1="10" y2="90.0" /><line stroke="rgb(10%,10%,16%)" x1="90" x2="90" y1="90.0" y2="170.0" /><line stroke="rgb(10%,10%,16%)" x1="110" x2="190" y1="10" y2="10" /><line stroke="rgb(10%,10%,16%)" x1="110" x2="110" y1="10" y2="90.0" /><line stroke="rgb(10%,10%,16%)" x1="190" x2="190" y1="10" y2="90.0" /><line stroke="rgb(10%,10%,16%)" x1="110" x2="110" y1="90.0" y2="170.0" /><line stroke="rgb(10%,10%,16%)" x1="190" x2="190" y1="90.0" y2="170.0" /><line stroke="rgb(10%,10%,16%)" x1="110" x2="190" y1="170.0" y2="170.0" /><line stroke="rgb(10%,10%,16%)" x1="250" x2="250" y1="10" y2="90.0" /><line stroke="rgb(10%,10%,16%)" x1="250" x2="250" y1="90.0" y2="170.0" /><line stroke="rgb(10%,10%,16%)" x1="210" x2="290" y1="170.0" y2="170.0" /><line stroke="rgb(10%,10%,16%)" x1="210" x2="250" y1="30.0" y2="10" /><line stroke="rgb(10%,10%,16%)" x1="310" x2="390" y1="10" y2="10" /><line stroke="rgb(10%,10%,16%)" x1="390" x2="390" y1="10" y2="90.0" /><line stroke="rgb(10%,10%,16%)" x1="310" x2="390" y1="90.0" y2="90.0" /><line stroke="rgb(10%,10%,16%)" x1="310" x2="310" y1="90.0" y2="170.0" /><line stroke="rgb(10%,10%,16%)" x1="310" x2="390" y1="170.0" y2="170.0" /><line stroke="rgb(10%,10%,16%)" x1="410" x2="490" y1="10" y2="10" /><line stroke="rgb(10%,10%,16%)" x1="410" x2="410" y1="10" y2="90.0" /><line stroke="rgb(10%,10%,16%)" x1="490" x2="490" y1="10" y2="90.0" /><line stroke="rgb(10%,10%,16%)" x1="410" x2="490" y1="90.0" y2="90.0" /><line stroke="rgb(10%,10%,16%)" x1="410" x2="410" y1="90.0" y2="170.0" /><line stroke="rgb(10%,10%,16%)" x1="490" x2="490" y1="90.0" y2="170.0" /><line stroke="rgb(10%,10%,16%)" x1="410" x2="490" y1="170.0" y2="170.0" /></svg>